<?xml version="1.0" standalone="no"?>
<!DOCTYPE svg PUBLIC "-//W3C//DTD SVG 20010904//EN"
 "http://www.w3.org/TR/2001/REC-SVG-20010904/DTD/svg10.dtd">
<svg version="1.0" xmlns="http://www.w3.org/2000/svg"
 width="500.000000pt" height="500.000000pt" viewBox="0 0 500.000000 500.000000"
 preserveAspectRatio="xMidYMid meet">

<g transform="translate(0.000000,500.000000) scale(0.100000,-0.100000)"
fill="#000000" stroke="none">
<path d="M2253 4909 c-732 -85 -1372 -535 -1702 -1195 -156 -314 -224 -604
-223 -964 0 -358 65 -643 217 -955 169 -348 419 -634 753 -859 383 -259 880
-391 1346 -357 l156 12 183 -140 c100 -77 242 -187 315 -245 134 -106 173
-125 227 -112 40 10 94 64 101 101 4 21 -13 144 -47 336 -35 205 -49 304 -41
307 28 9 187 111 272 175 390 292 675 720 800 1203 86 332 86 720 0 1059 -194
772 -789 1375 -1554 1576 -61 16 -114 29 -118 29 -5 0 -8 -63 -8 -140 l0 -139
43 -11 c215 -57 477 -182 650 -310 920 -684 1038 -1997 256 -2834 -140 -150
-318 -284 -508 -383 -145 -75 -150 -88 -110 -314 16 -90 28 -167 26 -171 -1
-3 -91 60 -200 142 -109 81 -211 150 -227 154 -16 3 -54 1 -85 -4 -105 -17
-300 -22 -433 -11 -431 35 -839 218 -1148 513 -335 321 -533 721 -583 1180
-101 922 501 1793 1401 2028 102 27 284 60 331 60 16 0 17 -19 17 -258 l0
-257 -57 -13 c-32 -7 -98 -33 -148 -58 -192 -94 -334 -261 -406 -479 l-24 -70
-3 -720 c-2 -632 -1 -729 13 -800 59 -292 274 -519 570 -602 28 -7 95 -16 150
-19 378 -23 711 224 806 596 11 45 14 192 14 790 0 811 2 778 -65 926 -96 213
-300 386 -512 435 l-58 14 0 397 0 398 -157 -1 c-87 -1 -191 -5 -230 -10z
m349 -1060 c131 -27 276 -134 335 -246 34 -63 65 -158 56 -167 -4 -3 -103 -6
-222 -6 -197 0 -219 -2 -248 -20 -72 -44 -85 -153 -24 -213 l31 -32 235 -3
235 -3 0 -141 0 -141 -127 4 c-71 2 -175 2 -232 1 l-103 -2 -39 -39 c-35 -34
-39 -44 -39 -87 0 -31 7 -61 20 -82 34 -56 63 -62 305 -62 l215 0 0 -134 0
-135 -227 -3 c-195 -3 -231 -5 -252 -20 -80 -57 -82 -181 -4 -234 25 -17 54
-20 254 -24 l226 -5 -14 -54 c-53 -210 -255 -362 -481 -362 -226 0 -412 134
-484 350 -22 65 -22 76 -26 700 -2 403 1 665 7 719 37 297 316 501 603 441z"/>
</g>
</svg>
